<?xml version="1.0" encoding="iso-8859-1"?>
<!-- Uploaded to: SVG Repo, www.svgrepo.com, Generator: SVG Repo Mixer Tools -->
<svg version="1.1" id="Layer_1" xmlns="http://www.w3.org/2000/svg" xmlns:xlink="http://www.w3.org/1999/xlink" 
	 viewBox="0 0 511.999 511.999" xml:space="preserve">
<rect x="387.561" y="27.294" transform="matrix(-0.7071 -0.7071 0.7071 -0.7071 681.4496 386.7464)" style="fill:#EBEBEB;" width="66.523" height="49.892"/>
<rect x="218.621" y="174.065" transform="matrix(-0.7071 -0.7071 0.7071 -0.7071 273.5882 555.6948)" style="fill:#A8A8A8;" width="66.523" height="94.241"/>
<rect x="297.068" y="45.445" transform="matrix(-0.7071 -0.7071 0.7071 -0.7071 496.4373 463.3818)" style="fill:#FFAC3D;" width="94.241" height="166.861"/>
<path style="fill:#2969B0;" d="M277.362,242.755l-35.28,35.28l0,0c23.814,23.814,23.814,62.425,0,86.239l-23.519,23.519
	c-23.814,23.814-62.424,23.814-86.239,0l-47.039-47.039l-35.28,35.28l102.31,102.31c30.092,30.092,78.881,30.092,108.974,0
	l71.343-71.343c30.092-30.092,30.092-78.881,0-108.974L277.362,242.755z"/>
<g>
	<circle style="fill:#231F20;" cx="290.696" cy="384.661" r="11.087"/>
	<circle style="fill:#231F20;" cx="238.952" cy="436.405" r="11.087"/>
	<path style="fill:#231F20;" d="M442.393,93.406l27.439-27.439c4.33-4.33,4.33-11.349,0-15.68l-47.039-47.04
		C420.714,1.169,417.893,0,414.953,0s-5.76,1.169-7.84,3.247l-27.44,27.44l-1.96-1.96c-2.08-2.079-4.899-3.247-7.84-3.247
		c-2.94,0-5.76,1.169-7.84,3.247l-117.989,117.99c-4.33,4.33-4.33,11.35,0,15.68l1.96,1.96l-58.799,58.799
		c-2.079,2.079-3.247,4.899-3.247,7.84c0,2.94,1.169,5.761,3.247,7.84l15.68,15.68l-42.727,42.727c-4.33,4.33-4.33,11.35,0,15.681
		c2.165,2.165,5.003,3.247,7.84,3.247s5.674-1.082,7.84-3.247l42.727-42.727l15.68,15.68c0.001,0.001,0.002,0.002,0.003,0.003
		c19.448,19.454,19.447,51.103-0.003,70.555l-23.52,23.519c-19.453,19.454-51.106,19.454-70.558,0l-15.68-15.68l11.172-11.171
		c4.33-4.33,4.33-11.35,0-15.681c-4.331-4.33-11.349-4.33-15.681,0l-11.172,11.171l-15.68-15.68c-2.08-2.079-4.899-3.247-7.84-3.247
		s-5.76,1.169-7.84,3.247l-35.278,35.28c-4.33,4.33-4.33,11.35,0,15.68l102.31,102.31c16.649,16.649,38.783,25.817,62.327,25.817
		s45.679-9.168,62.328-25.817l71.343-71.343c34.366-34.367,34.366-90.286,0-124.654l-47.431-47.431l15.68-15.68l1.96,1.96
		c2.08,2.079,4.899,3.247,7.84,3.247s5.76-1.169,7.84-3.247l117.99-117.99c2.079-2.079,3.247-4.899,3.247-7.84
		c0-2.94-1.169-5.761-3.247-7.84L442.393,93.406z M414.953,26.767l31.359,31.36l-19.599,19.599l-31.36-31.359L414.953,26.767z
		 M324.795,305.866c25.72,25.721,25.72,67.573,0,93.295l-71.343,71.343c-12.46,12.46-29.026,19.322-46.647,19.322
		s-34.186-6.862-46.646-19.322l-94.471-94.47l19.6-19.6l39.199,39.2c14.052,14.051,32.501,21.076,50.959,21.074
		c18.452-0.001,36.912-7.026,50.959-21.074l23.52-23.52c25.433-25.433,27.846-65.303,7.238-93.475l20.202-20.202L324.795,305.866z
		 M242.084,262.355l-31.359-31.359l50.959-50.959l31.359,31.359L242.084,262.355z M318.522,205.516l-50.959-50.959l102.31-102.311
		l50.959,50.959L318.522,205.516z"/>
</g>
</svg>