<?xml version="1.0" standalone="no"?>
<!DOCTYPE svg PUBLIC "-//W3C//DTD SVG 20010904//EN"
 "http://www.w3.org/TR/2001/REC-SVG-20010904/DTD/svg10.dtd">
<svg version="1.0" xmlns="http://www.w3.org/2000/svg"
 width="840.000000pt" height="701.000000pt" viewBox="0 0 840.000000 701.000000"
 preserveAspectRatio="xMidYMid meet">

<g transform="translate(0.000000,701.000000) scale(0.100000,-0.100000)"
fill="#000000" stroke="none">
<path d="M4040 6579 c-605 -25 -1162 -219 -1640 -572 -433 -319 -769 -721
-994 -1187 -199 -414 -286 -813 -286 -1320 0 -509 87 -908 289 -1325 209 -430
509 -802 906 -1120 442 -354 972 -566 1568 -625 156 -16 508 -13 674 4 545 58
1032 249 1468 576 613 460 1036 1105 1190 1815 89 412 91 913 4 1334 -147 714
-583 1377 -1213 1843 -462 342 -1024 546 -1577 573 -63 3 -139 7 -169 8 -30 2
-129 0 -220 -4z m-750 -1909 c164 -41 312 -130 440 -266 197 -209 307 -504
327 -876 l6 -118 -863 0 -863 0 6 -112 c4 -62 14 -140 23 -173 65 -239 231
-404 475 -471 90 -25 319 -26 409 -1 192 52 357 203 386 355 l6 32 189 0 c104
0 189 -3 189 -8 0 -17 -39 -142 -63 -200 -94 -228 -329 -423 -593 -491 -113
-30 -203 -41 -329 -41 -533 0 -909 284 -1040 785 -44 170 -58 302 -52 490 7
228 41 366 135 550 154 300 418 499 745 561 107 20 357 12 467 -16z m1709
-385 c156 -228 288 -415 292 -415 4 0 139 185 299 411 161 226 298 413 304
415 6 2 114 3 239 2 l227 -3 -410 -549 c-225 -303 -410 -551 -410 -553 0 -2
204 -288 453 -635 249 -348 457 -639 461 -645 6 -10 -46 -13 -246 -13 l-253 1
-329 489 c-181 270 -332 490 -335 490 -4 0 -156 -220 -337 -490 l-329 -490
-237 0 c-131 0 -238 2 -238 4 0 3 200 285 445 628 244 343 443 628 441 634 -3
7 -187 260 -410 564 -223 303 -406 556 -406 561 0 5 102 9 248 9 l247 0 284
-415z"/>
<path d="M2930 4364 c-106 -16 -156 -31 -230 -66 -117 -56 -220 -159 -279
-279 -41 -84 -81 -217 -81 -271 l0 -28 655 0 655 0 0 33 c0 59 -38 185 -80
266 -98 188 -279 314 -490 340 -85 11 -103 12 -150 5z"/>
</g>
</svg>
