<?xml version="1.0" standalone="no"?>
<!DOCTYPE svg PUBLIC "-//W3C//DTD SVG 20010904//EN"
 "http://www.w3.org/TR/2001/REC-SVG-20010904/DTD/svg10.dtd">
<svg version="1.0" xmlns="http://www.w3.org/2000/svg"
 width="400.000000pt" height="400.000000pt" viewBox="0 0 400.000000 400.000000"
 preserveAspectRatio="xMidYMid meet">

<g transform="translate(0.000000,400.000000) scale(0.100000,-0.100000)"
fill="#000000" stroke="none">
<path d="M778 3681 c-251 -266 -351 -559 -365 -1076 l-6 -220 -67 -72 c-77
-82 -129 -181 -156 -291 -22 -93 -15 -260 14 -342 43 -123 74 -168 238 -350
385 -429 906 -748 1434 -879 232 -57 297 -65 535 -66 252 0 279 5 508 86 284
102 589 252 719 354 92 72 109 145 44 187 -45 28 -163 19 -336 -27 -74 -20
-176 -47 -227 -60 -279 -73 -600 -76 -832 -8 -214 62 -401 186 -562 371 l-46
54 -53 -16 c-30 -9 -62 -16 -73 -16 -37 0 -203 132 -191 152 3 4 30 8 60 8 61
0 61 1 39 72 l-14 47 35 7 c19 3 34 11 34 16 0 6 -16 53 -35 105 -20 52 -52
160 -71 241 -21 90 -49 175 -70 218 -74 149 -219 283 -352 324 -42 13 -93 20
-147 20 -98 0 -88 -17 -106 179 -13 152 -8 299 16 385 39 147 135 317 249 442
l55 62 -93 81 c-52 44 -98 81 -104 81 -5 0 -39 -31 -74 -69z m151 -75 l24 -26
-40 -47 c-97 -117 -194 -293 -229 -418 -25 -90 -30 -336 -9 -514 9 -79 12
-147 8 -151 -4 -4 -28 -12 -53 -19 -25 -7 -69 -26 -97 -43 l-53 -29 0 205 c0
477 91 780 310 1035 l61 71 27 -19 c15 -10 38 -31 51 -45z m-339 -1376 c28
-28 26 -74 -10 -235 -50 -225 -36 -362 54 -531 82 -155 166 -245 382 -414 156
-121 276 -200 464 -304 84 -47 150 -86 145 -86 -18 0 -183 64 -270 105 -376
175 -883 620 -1009 885 -57 121 -47 322 24 458 37 72 47 83 94 116 47 32 98
34 126 6z m321 -566 c95 -34 114 -37 219 -38 63 -1 141 1 174 4 l59 5 14 -49
c8 -26 12 -50 9 -53 -3 -3 -56 -8 -118 -10 -137 -6 -256 12 -389 60 -85 31
-94 37 -97 61 -3 21 11 56 22 56 1 0 49 -16 107 -36z"/>
</g>
</svg>
