<?xml version="1.0" encoding="utf-8"?>
<!-- Svg Vector Icons : http://www.onlinewebfonts.com/icon -->
<!DOCTYPE svg PUBLIC "-//W3C//DTD SVG 1.1//EN" "http://www.w3.org/Graphics/SVG/1.1/DTD/svg11.dtd">
<svg version="1.1" xmlns="http://www.w3.org/2000/svg" xmlns:xlink="http://www.w3.org/1999/xlink" x="0px" y="0px" viewBox="0 0 256 256" enable-background="new 0 0 256 256" xml:space="preserve">
<metadata> Svg Vector Icons : http://www.onlinewebfonts.com/icon </metadata>
<g> <path fill="#a1b9ce" d="M209.8,30.1v195.6H46.5V30.1H209.8 M209.8,13.8H46.5c-9,0-16.3,7.3-16.3,16.3v195.6c0,9,7.3,16.3,16.3,16.3 h163.3c9,0,16.3-7.3,16.3-16.3V30.1C226.2,21.1,218.9,13.8,209.8,13.8z"/> <path fill="#a1b9ce" d="M64.1,103.8v-57h57v57H64.1z M144.2,54.7v-8.2h48.6v8.2H144.2z M144.2,78.9v-8.2h48.6v8.2H144.2z  M144.2,103.7v-8.2h48.6v8.2H144.2z M64.1,127.8v-8.2h128.7v8.2H64.1z M64.1,152.1v-8.2h128.7v8.2H64.1z"/> <path fill="#8b96a4" d="M184.5,207.9v-8.2h25v8.2H184.5z"/> <path fill="#88a5ba" d="M229.7,242.2H26.3c-9,0-16.3-7.3-16.3-16.3v-28.6c0-9,7.3-16.3,16.3-16.3h203.3c9,0,16.3,7.3,16.3,16.3 v28.6C246,234.9,238.7,242.2,229.7,242.2z"/> <path fill="#ffffff" d="M39.5,194.4c3.7,0,6.7,0.8,8.8,2.5c2.2,1.8,3.4,4.5,3.4,8c0,1.9-0.5,3.6-1.5,5.1c-1.1,1.6-2.7,2.7-4.6,3.2 v0.1c3.2,0.7,5,2.8,5.4,6.4l0.6,5.9c0.2,2.2,1,4,2.2,5.4h-6.5c-0.9-1.1-1.4-2.7-1.6-4.8l-0.5-4.5c-0.2-2-0.8-3.4-1.8-4.3 c-1.1-0.9-2.7-1.3-4.7-1.3h-9.4v14.9h-6v-36.5H39.5z M29.3,210.9h9.4c2.3,0,4.1-0.5,5.4-1.5c1.1-1,1.7-2.5,1.7-4.3 c0-2-0.6-3.4-1.7-4.3c-1.1-0.9-2.9-1.3-5.4-1.3h-9.4V210.9z M85.2,194.4v5.1H64.9v10.1H84v5.1H64.9v11h21.2v5.1H58.9v-36.5H85.2z  M108.8,194.4l13.9,36.5h-6.4l-3.3-9.1H97.8l-3.3,9.1h-6.4l13.9-36.5H108.8z M111.3,216.8l-5.7-16h-0.2l-5.8,16H111.3z  M139.7,194.4c5.9,0,10.4,1.6,13.4,4.9c2.9,3.1,4.4,7.5,4.4,13.3c0,5.8-1.5,10.2-4.4,13.3c-3.1,3.3-7.5,4.9-13.4,4.9h-13.3v-36.5 H139.7z M132.3,225.7h6.2c4.5,0,7.9-1.1,10-3.2c2-2.1,3.1-5.5,3.1-10c0-4.6-1-8-3.1-10c-2.1-2.1-5.4-3.1-10-3.1h-6.2V225.7 L132.3,225.7z M170.1,194.4l12.4,28.6h0.2l12.4-28.6h7v36.5h-6v-25.1h-0.2l-10.7,25.1H180l-10.7-25.1h-0.2v25.1h-6v-36.5H170.1z  M235.6,194.4v5.1h-20.3v10.1h19.1v5.1h-19.1v11h21.2v5.1h-27.2v-36.5H235.6z"/> <path fill="#ffffff" d="M96.6,53.6L112.8,96h-7.4l-3.9-10.6H83.8L79.9,96h-7.4l16.2-42.3H96.6z M99.4,79.6l-6.6-18.6h-0.2 l-6.7,18.6H99.4z"/></g>
</svg>