<svg width="16" height="16" viewBox="0 0 16 16" fill="none" xmlns="http://www.w3.org/2000/svg">
<path d="M7.95636 1.20822C7.83117 1.21558 7.70872 1.24801 7.5963 1.3036L2.72036 3.62935C2.46574 3.75053 2.28068 3.9811 2.21724 4.25585L1.02374 9.47566C0.966863 9.72066 1.0128 9.97747 1.15499 10.1875C1.17161 10.2128 1.18911 10.2373 1.20749 10.261L4.57624 14.4496C4.7543 14.6683 5.02161 14.7939 5.30336 14.7926H10.7065C10.9891 14.793 11.2569 14.6613 11.4345 14.4457L14.8015 10.2562C14.9782 10.0374 15.0443 9.74866 14.9765 9.47478L13.7751 4.2506C13.7117 3.97585 13.5257 3.74528 13.272 3.6241L8.40393 1.30403C8.26365 1.23485 8.10827 1.20191 7.95199 1.20822H7.95636Z" fill="#548AF7"/>
<path fill-rule="evenodd" clip-rule="evenodd" d="M8.34177 3.31427C8.351 3.12348 8.20966 2.95963 8.02015 2.94037L8.01257 2.93616L7.99776 2.9372C7.80303 2.95089 7.65529 3.11742 7.66471 3.31208L7.66453 3.39308L7.66488 3.39729C7.67291 3.49225 7.68713 3.58608 7.7057 3.67868C7.7316 3.84818 7.74112 4.01978 7.73414 4.1911C7.71967 4.23786 7.69233 4.28015 7.65533 4.31288L7.63964 4.32675L7.63427 4.42777C7.46949 4.44346 7.30592 4.46964 7.14457 4.5063C6.42016 4.66979 5.75926 5.04142 5.2443 5.57646L5.15463 5.51294L5.13121 5.52004C5.08745 5.5333 5.0403 5.52881 4.99957 5.50793C4.86163 5.40552 4.73388 5.29005 4.61812 5.16311C4.55731 5.09051 4.49251 5.02133 4.4238 4.95616L4.35574 4.9019C4.28975 4.84894 4.20882 4.81848 4.12448 4.81445C4.07252 4.81172 4.02065 4.8213 3.9731 4.84244C3.92551 4.86359 3.88353 4.89564 3.85073 4.93609L3.84893 4.93861C3.73423 5.0995 3.77156 5.32204 3.93117 5.43755L3.99049 5.48507L3.99407 5.48745C4.07314 5.54006 4.15516 5.58807 4.23974 5.63126C4.38968 5.71477 4.53101 5.81235 4.66223 5.92687C4.68956 5.96765 4.70544 6.01506 4.70816 6.06415L4.70928 6.08447L4.78828 6.15695C4.29158 6.92065 4.08454 7.8371 4.20387 8.74036L4.1047 8.76869L4.09451 8.78488C4.0677 8.82749 4.03267 8.86386 3.99126 8.89121C3.82625 8.93476 3.65745 8.96239 3.48716 8.97373C3.39195 8.97571 3.2969 8.98297 3.20254 8.99585L3.12632 9.01307L3.12314 9.0126L3.11627 9.01355C3.05336 9.02228 2.99412 9.0483 2.94512 9.08871C2.89613 9.12911 2.85931 9.18233 2.83876 9.24242C2.81822 9.30251 2.81475 9.36713 2.82876 9.42907C2.84276 9.49102 2.87394 9.54812 2.91833 9.59353C2.96314 9.63872 3.01963 9.67055 3.08149 9.68547C3.14051 9.69971 3.20219 9.69802 3.26025 9.68066L3.34313 9.67224L3.35169 9.66971C3.44243 9.64289 3.53161 9.6099 3.61832 9.57257C3.77734 9.509 3.9421 9.46013 4.11052 9.42796C4.15925 9.43186 4.20579 9.44896 4.24558 9.47739L4.26243 9.48942L4.37178 9.4712C4.6602 10.3329 5.24459 11.0645 6.02113 11.5356L5.97709 11.6277L5.98742 11.6493C6.0068 11.6898 6.01461 11.7345 6.00998 11.779C5.93976 11.9404 5.85415 12.0951 5.75439 12.2407C5.69687 12.3166 5.64356 12.3956 5.5951 12.4776L5.55677 12.5588C5.52589 12.6131 5.51043 12.6749 5.51209 12.7374C5.51376 12.8006 5.53288 12.8621 5.56732 12.9152C5.60176 12.9682 5.65018 13.0107 5.70725 13.0379C5.76432 13.0652 5.82821 13.0761 5.89111 13.0695C5.95415 13.0624 6.01399 13.038 6.06399 12.9989C6.11332 12.9604 6.15115 12.9091 6.17342 12.8506L6.20889 12.7785L6.21051 12.7742C6.24405 12.686 6.27234 12.596 6.2954 12.5051C6.31902 12.4465 6.34016 12.3844 6.36027 12.3254C6.37269 12.289 6.38473 12.2537 6.3967 12.2211C6.4293 12.1322 6.46338 12.057 6.50949 12.0008C6.53641 11.9762 6.56995 11.9601 6.60597 11.9545L6.63021 11.9507L6.68675 11.8477C7.5386 12.1641 8.47536 12.1664 9.32878 11.8545L9.37837 11.9495L9.40362 11.9532C9.44834 11.9598 9.48911 11.9841 9.5173 12.0204C9.59698 12.1727 9.66154 12.3322 9.71096 12.4968C9.73452 12.589 9.76317 12.6798 9.79713 12.7687L9.83442 12.8451C9.85689 12.9033 9.89485 12.9544 9.94422 12.9927C9.99424 13.0315 10.054 13.0557 10.1169 13.0627C10.1799 13.0696 10.2435 13.059 10.3007 13.0321C10.358 13.0051 10.4069 12.9625 10.4416 12.9096C10.476 12.8563 10.495 12.7946 10.4965 12.7312C10.4979 12.6685 10.4821 12.6067 10.4508 12.5523L10.4138 12.4752L10.4116 12.4715C10.3631 12.3898 10.31 12.3109 10.2524 12.2353C10.1549 12.0944 10.0706 11.944 9.99708 11.7861C9.99255 11.7644 9.99213 11.742 9.99585 11.7201C9.99984 11.6967 10.0085 11.6743 10.0213 11.6542L10.0365 11.6305L10.0241 11.6053C10.0123 11.581 10.0014 11.5563 9.99168 11.5311C10.7682 11.0568 11.3514 10.3218 11.6373 9.4576L11.743 9.4762L11.7611 9.45965C11.7952 9.42863 11.8396 9.41184 11.8854 9.41223C12.0533 9.44471 12.2186 9.4973 12.3798 9.55728C12.4667 9.59726 12.5555 9.63104 12.6456 9.65943L12.6476 9.65996C12.66 9.66333 12.6746 9.66627 12.6876 9.66884L12.6916 9.66964C12.7037 9.67204 12.7147 9.6742 12.7242 9.6765L12.7239 9.67789H12.734C12.7922 9.69516 12.854 9.6967 12.913 9.68228C12.9748 9.66722 13.0311 9.63532 13.0757 9.59014C13.1204 9.54496 13.1516 9.48827 13.1659 9.42639C13.1803 9.36451 13.177 9.29952 13.1568 9.23931C13.1361 9.17915 13.0991 9.12593 13.0499 9.0856C13.0014 9.04581 12.9428 9.0201 12.8807 9.01125L12.7982 8.99144L12.7934 8.99078C12.699 8.97791 12.604 8.97046 12.5088 8.96848C12.3378 8.95741 12.1686 8.92966 12.0035 8.88564C11.9614 8.86092 11.9262 8.82499 11.9019 8.78177L11.8919 8.76409L11.7953 8.73545C11.9088 7.83252 11.6974 6.91858 11.199 6.15718L11.2886 6.07433L11.2869 6.05031C11.2836 6.00484 11.298 5.95944 11.327 5.92377C11.4577 5.81179 11.5993 5.7128 11.7481 5.62809C11.8326 5.58491 11.9147 5.53712 11.9937 5.48458L12.0589 5.4319C12.1127 5.39782 12.1559 5.34942 12.1838 5.29212C12.2121 5.23385 12.2234 5.16875 12.2162 5.10435C12.2091 5.03995 12.1839 4.97888 12.1435 4.92822C12.1031 4.87755 12.0492 4.83935 11.988 4.81804C11.9269 4.79676 11.861 4.79321 11.7979 4.8078C11.7358 4.82216 11.679 4.85353 11.6337 4.89835L11.571 4.94809L11.5679 4.95105C11.4991 5.01635 11.4341 5.08553 11.3731 5.15826C11.2614 5.286 11.138 5.4025 11.0042 5.50694C10.9586 5.52424 10.9091 5.52905 10.8609 5.52079L10.8404 5.51728L10.7479 5.58313C10.1143 4.93386 9.27212 4.52701 8.36889 4.43514C8.36778 4.41216 8.36621 4.3888 8.36505 4.37169L8.3636 4.34864L8.36254 4.32376L8.34205 4.30961C8.30418 4.28348 8.27763 4.24411 8.2681 4.19967C8.26247 4.02794 8.27339 3.85607 8.30071 3.68644C8.31981 3.59295 8.33333 3.49957 8.34177 3.40497V3.31427ZM7.16349 6.93147L5.95934 6.07827C6.34425 5.71525 6.81999 5.46213 7.3369 5.34592C7.41818 5.32856 7.50061 5.31456 7.58306 5.30392L7.50167 6.72539H7.49459L7.49238 6.77308C7.48891 6.8481 7.44501 6.91366 7.37355 6.95177C7.3073 6.9871 7.22618 6.97723 7.16349 6.93147ZM8.50281 6.77297L8.41949 5.30482C9.02468 5.39244 9.58796 5.66422 10.0336 6.0832L8.84113 6.93057L8.83891 6.93234C8.7773 6.98164 8.69272 6.99153 8.62114 6.95769C8.54972 6.92391 8.50387 6.85202 8.50281 6.77297ZM6.42133 8.09179V8.09662L5.04426 8.4927C4.98944 7.88044 5.12685 7.26667 5.43791 6.73653L6.52239 7.70428V7.7112L6.53955 7.72615C6.59683 7.77605 6.62197 7.85393 6.60501 7.92848C6.58815 8.0026 6.53109 8.06157 6.45806 8.08168L6.42133 8.09179ZM9.46568 7.71783L10.5583 6.73991C10.8675 7.26771 11.0084 7.87726 10.9619 8.4872L9.58339 8.09007V8.08378L9.54649 8.07376C9.47241 8.05365 9.41626 7.99489 9.39976 7.92083C9.38313 7.84615 9.40811 7.76869 9.46568 7.71783ZM9.30596 9.05751L9.30753 9.05162C9.31243 9.05178 9.31678 9.05211 9.32017 9.05256L10.7773 9.29843C10.5636 9.8749 10.167 10.3697 9.6537 10.7124L9.09031 9.34852C9.07732 9.31782 9.07189 9.28445 9.07448 9.25121C9.07707 9.21797 9.08761 9.18584 9.1052 9.15753C9.1228 9.12921 9.14694 9.10554 9.1756 9.0885C9.20425 9.07146 9.23658 9.06155 9.26987 9.05962L9.30596 9.05751ZM6.90346 9.35733V9.36332L6.3476 10.7062C5.84039 10.3665 5.45121 9.87813 5.23205 9.30788L6.67448 9.06321C6.68713 9.06198 6.70022 9.06202 6.71342 9.06338L6.7434 9.06645L6.74652 9.06176C6.80522 9.0702 6.85802 9.10369 6.89102 9.15427C6.9286 9.21187 6.93468 9.28435 6.90749 9.34791L6.90346 9.35733ZM8.19685 9.80695H8.20281L8.89945 11.0641L8.66454 11.1335C8.14841 11.2513 7.61041 11.2287 7.10619 11.0684L7.82038 9.78415C7.85653 9.72119 7.9233 9.68227 7.99679 9.6805L8.05351 9.67913C8.07086 9.68376 8.08761 9.69064 8.10333 9.69966C8.13678 9.71884 8.16424 9.74694 8.18265 9.78082L8.19685 9.80695ZM8.21106 7.81151H7.79035L7.52889 8.13814L7.61791 8.546L7.99643 8.72761L8.3744 8.54588L8.46782 8.13766L8.21106 7.81151Z" fill="#F7F8FA"/>
</svg>
