<!-- Copyright 2000-2024 JetBrains s.r.o. and contributors. Use of this source code is governed by the Apache 2.0 license. -->
<svg width="16" height="16" viewBox="0 0 16 16" fill="none" xmlns="http://www.w3.org/2000/svg">
<path d="M11 10H6V11H8V16H9V11H11V10Z" fill="#3574F0"/>
<path d="M13.75 10C12.7835 10 12 10.7835 12 11.75C12 12.7165 12.7835 13.5 13.75 13.5H14.25C14.6642 13.5 15 13.8358 15 14.25C15 14.6642 14.6642 15 14.25 15H13.5C13.2239 15 13 14.7761 13 14.5H12C12 15.3284 12.6716 16 13.5 16H14.25C15.2165 16 16 15.2165 16 14.25C16 13.2835 15.2165 12.5 14.25 12.5H13.75C13.3358 12.5 13 12.1642 13 11.75C13 11.3358 13.3358 11 13.75 11H14.5C14.7761 11 15 11.2239 15 11.5H16C16 10.6716 15.3284 10 14.5 10H13.75Z" fill="#3574F0"/>
<path d="M14.9291 9C14.9758 8.6734 15 8.33952 15 8C15 4.13401 11.866 1 8 1C4.13401 1 1 4.13401 1 8C1 11.5265 3.60771 14.4439 7 14.9291V12H5V9H14.9291Z" fill="#F2FCF3"/>
<path d="M14.9291 9C14.9758 8.6734 15 8.33952 15 8C15 4.13401 11.866 1 8 1C4.13401 1 1 4.13401 1 8C1 11.5265 3.60771 14.4439 7 14.9291V13.917C4.16229 13.441 2 10.973 2 8C2 4.68629 4.68629 2 8 2C11.3137 2 14 4.68629 14 8C14 8.34071 13.9716 8.67479 13.917 9H14.9291Z" fill="#208A3C"/>
<path d="M8.5 9V5.5H10V4.5H6V5.5H7.5V9H8.5Z" fill="#208A3C"/>
</svg>
