<!-- Copyright 2000-2024 JetBrains s.r.o. and contributors. Use of this source code is governed by the Apache 2.0 license. -->
<svg width="16" height="16" viewBox="0 0 16 16" fill="none" xmlns="http://www.w3.org/2000/svg">
<path d="M11 10H6V11H8V16H9V11H11V10Z" fill="#3574F0"/>
<path d="M13.75 10C12.7835 10 12 10.7835 12 11.75C12 12.7165 12.7835 13.5 13.75 13.5H14.25C14.6642 13.5 15 13.8358 15 14.25C15 14.6642 14.6642 15 14.25 15H13.5C13.2239 15 13 14.7761 13 14.5H12C12 15.3284 12.6716 16 13.5 16H14.25C15.2165 16 16 15.2165 16 14.25C16 13.2835 15.2165 12.5 14.25 12.5H13.75C13.3358 12.5 13 12.1642 13 11.75C13 11.3358 13.3358 11 13.75 11H14.5C14.7761 11 15 11.2239 15 11.5H16C16 10.6716 15.3284 10 14.5 10H13.75Z" fill="#3574F0"/>
<path d="M4 2C2.89543 2 2 2.89543 2 4V12C2 13.1046 2.89543 14 4 14H7V12H5V9H14V4C14 2.89543 13.1046 2 12 2H4Z" fill="#EDF3FF"/>
<path d="M4 3H12C12.5523 3 13 3.44772 13 4V9H14V4C14 2.89543 13.1046 2 12 2H4C2.89543 2 2 2.89543 2 4V12C2 13.1046 2.89543 14 4 14H7V13H4C3.44772 13 3 12.5523 3 12V4C3 3.44772 3.44772 3 4 3Z" fill="#3574F0"/>
</svg>
